<svg xmlns="http://www.w3.org/2000/svg" width="180" height="180" viewBox="0 0 180 180">
  <g fill="none" stroke-linecap="square">
    <path d="M0 45h55 M75 45h45 M110 45h70 M0 90h35 M55 90h25 M100 90h80 M0 135h65 M85 135h35 M130 135h50" stroke="rgba(56,189,248,0.16)" stroke-width="1"/>
    <path d="M45 0v45 M45 55v35 M45 100v80 M90 0v25 M90 35v55 M90 100v80 M135 0v70 M135 80v45 M135 135v45" stroke="rgba(56,189,248,0.11)" stroke-width="1"/>
    <path d="M55 45h20 M55 90h45 M90 90h10 M85 135h45 M20 90h15 M160 90h20" stroke="rgba(52,211,153,0.13)" stroke-width="1"/>
    <circle cx="45" cy="45" r="3" fill="rgba(52,211,153,0.24)"/>
    <circle cx="90" cy="90" r="2.5" fill="rgba(56,189,248,0.22)"/>
    <circle cx="135" cy="45" r="2" fill="rgba(129,140,248,0.24)"/>
    <circle cx="45" cy="135" r="2" fill="rgba(56,189,248,0.2)"/>
    <circle cx="135" cy="135" r="3" fill="rgba(52,211,153,0.22)"/>
    <circle cx="160" cy="90" r="2" fill="rgba(56,189,248,0.16)"/>
    <rect x="72" y="72" width="36" height="22" rx="3" stroke="rgba(148,163,184,0.16)" stroke-width="1"/>
    <line x1="76" y1="80" x2="104" y2="80" stroke="rgba(52,211,153,0.12)" stroke-width="1"/>
    <line x1="76" y1="86" x2="96" y2="86" stroke="rgba(52,211,153,0.09)" stroke-width="1"/>
    <rect x="10" y="118" width="18" height="12" rx="2" stroke="rgba(148,163,184,0.12)" stroke-width="1"/>
    <rect x="148" y="10" width="22" height="14" rx="2" stroke="rgba(148,163,184,0.1)" stroke-width="1"/>
    <circle cx="19" cy="124" r="1.5" fill="rgba(56,189,248,0.18)"/>
    <circle cx="159" cy="17" r="1.5" fill="rgba(52,211,153,0.16)"/>
  </g>
</svg>